<?xml version="1.0" encoding="utf-8" standalone="no"?>
<!DOCTYPE svg PUBLIC "-//W3C//DTD SVG 1.1//EN"
  "http://www.w3.org/Graphics/SVG/1.1/DTD/svg11.dtd">
<!-- Created with matplotlib (http://matplotlib.org/) -->
<svg height="640pt" version="1.1" viewBox="0 0 640 640" width="640pt" xmlns="http://www.w3.org/2000/svg" xmlns:xlink="http://www.w3.org/1999/xlink">
 <defs>
  <style type="text/css">
*{stroke-linecap:butt;stroke-linejoin:round;}
  </style>
 </defs>
 <g id="figure_1">
  <g id="patch_1">
   <path d="M 0 640 
L 640 640 
L 640 0 
L 0 0 
z
" style="fill:#ffffff;"/>
  </g>
  <g id="axes_1">
   <g id="patch_2">
    <path d="M 60.10625 598.84375 
L 625.7 598.84375 
L 625.7 14.599219 
L 60.10625 14.599219 
z
" style="fill:#ffffff;"/>
   </g>
   <g id="matplotlib.axis_1">
    <g id="xtick_1">
     <g id="line2d_1">
      <defs>
       <path d="M 0 0 
L 0 3.5 
" id="m29a8e39759" style="stroke:#000000;stroke-width:0.8;"/>
      </defs>
      <g>
       <use style="stroke:#000000;stroke-width:0.8;" x="85.815057" xlink:href="#m29a8e39759" y="598.84375"/>
      </g>
     </g>
     <g id="text_1">
      <!-- 0 -->
      <defs>
       <path d="M 31.78125 66.40625 
Q 24.171875 66.40625 20.328125 58.90625 
Q 16.5 51.421875 16.5 36.375 
Q 16.5 21.390625 20.328125 13.890625 
Q 24.171875 6.390625 31.78125 6.390625 
Q 39.453125 6.390625 43.28125 13.890625 
Q 47.125 21.390625 47.125 36.375 
Q 47.125 51.421875 43.28125 58.90625 
Q 39.453125 66.40625 31.78125 66.40625 
z
M 31.78125 74.21875 
Q 44.046875 74.21875 50.515625 64.515625 
Q 56.984375 54.828125 56.984375 36.375 
Q 56.984375 17.96875 50.515625 8.265625 
Q 44.046875 -1.421875 31.78125 -1.421875 
Q 19.53125 -1.421875 13.0625 8.265625 
Q 6.59375 17.96875 6.59375 36.375 
Q 6.59375 54.828125 13.0625 64.515625 
Q 19.53125 74.21875 31.78125 74.21875 
z
" id="DejaVuSans-30"/>
      </defs>
      <g transform="translate(82.633807 613.442188)scale(0.1 -0.1)">
       <use xlink:href="#DejaVuSans-30"/>
      </g>
     </g>
    </g>
    <g id="xtick_2">
     <g id="line2d_2">
      <g>
       <use style="stroke:#000000;stroke-width:0.8;" x="186.633907" xlink:href="#m29a8e39759" y="598.84375"/>
      </g>
     </g>
     <g id="text_2">
      <!-- 50 -->
      <defs>
       <path d="M 10.796875 72.90625 
L 49.515625 72.90625 
L 49.515625 64.59375 
L 19.828125 64.59375 
L 19.828125 46.734375 
Q 21.96875 47.46875 24.109375 47.828125 
Q 26.265625 48.1875 28.421875 48.1875 
Q 40.625 48.1875 47.75 41.5 
Q 54.890625 34.8125 54.890625 23.390625 
Q 54.890625 11.625 47.5625 5.09375 
Q 40.234375 -1.421875 26.90625 -1.421875 
Q 22.3125 -1.421875 17.546875 -0.640625 
Q 12.796875 0.140625 7.71875 1.703125 
L 7.71875 11.625 
Q 12.109375 9.234375 16.796875 8.0625 
Q 21.484375 6.890625 26.703125 6.890625 
Q 35.15625 6.890625 40.078125 11.328125 
Q 45.015625 15.765625 45.015625 23.390625 
Q 45.015625 31 40.078125 35.4375 
Q 35.15625 39.890625 26.703125 39.890625 
Q 22.75 39.890625 18.8125 39.015625 
Q 14.890625 38.140625 10.796875 36.28125 
z
" id="DejaVuSans-35"/>
      </defs>
      <g transform="translate(180.271407 613.442188)scale(0.1 -0.1)">
       <use xlink:href="#DejaVuSans-35"/>
       <use x="63.623047" xlink:href="#DejaVuSans-30"/>
      </g>
     </g>
    </g>
    <g id="xtick_3">
     <g id="line2d_3">
      <g>
       <use style="stroke:#000000;stroke-width:0.8;" x="287.452757" xlink:href="#m29a8e39759" y="598.84375"/>
      </g>
     </g>
     <g id="text_3">
      <!-- 100 -->
      <defs>
       <path d="M 12.40625 8.296875 
L 28.515625 8.296875 
L 28.515625 63.921875 
L 10.984375 60.40625 
L 10.984375 69.390625 
L 28.421875 72.90625 
L 38.28125 72.90625 
L 38.28125 8.296875 
L 54.390625 8.296875 
L 54.390625 0 
L 12.40625 0 
z
" id="DejaVuSans-31"/>
      </defs>
      <g transform="translate(277.909007 613.442188)scale(0.1 -0.1)">
       <use xlink:href="#DejaVuSans-31"/>
       <use x="63.623047" xlink:href="#DejaVuSans-30"/>
       <use x="127.246094" xlink:href="#DejaVuSans-30"/>
      </g>
     </g>
    </g>
    <g id="xtick_4">
     <g id="line2d_4">
      <g>
       <use style="stroke:#000000;stroke-width:0.8;" x="388.271608" xlink:href="#m29a8e39759" y="598.84375"/>
      </g>
     </g>
     <g id="text_4">
      <!-- 150 -->
      <g transform="translate(378.727858 613.442188)scale(0.1 -0.1)">
       <use xlink:href="#DejaVuSans-31"/>
       <use x="63.623047" xlink:href="#DejaVuSans-35"/>
       <use x="127.246094" xlink:href="#DejaVuSans-30"/>
      </g>
     </g>
    </g>
    <g id="xtick_5">
     <g id="line2d_5">
      <g>
       <use style="stroke:#000000;stroke-width:0.8;" x="489.090458" xlink:href="#m29a8e39759" y="598.84375"/>
      </g>
     </g>
     <g id="text_5">
      <!-- 200 -->
      <defs>
       <path d="M 19.1875 8.296875 
L 53.609375 8.296875 
L 53.609375 0 
L 7.328125 0 
L 7.328125 8.296875 
Q 12.9375 14.109375 22.625 23.890625 
Q 32.328125 33.6875 34.8125 36.53125 
Q 39.546875 41.84375 41.421875 45.53125 
Q 43.3125 49.21875 43.3125 52.78125 
Q 43.3125 58.59375 39.234375 62.25 
Q 35.15625 65.921875 28.609375 65.921875 
Q 23.96875 65.921875 18.8125 64.3125 
Q 13.671875 62.703125 7.8125 59.421875 
L 7.8125 69.390625 
Q 13.765625 71.78125 18.9375 73 
Q 24.125 74.21875 28.421875 74.21875 
Q 39.75 74.21875 46.484375 68.546875 
Q 53.21875 62.890625 53.21875 53.421875 
Q 53.21875 48.921875 51.53125 44.890625 
Q 49.859375 40.875 45.40625 35.40625 
Q 44.1875 33.984375 37.640625 27.21875 
Q 31.109375 20.453125 19.1875 8.296875 
z
" id="DejaVuSans-32"/>
      </defs>
      <g transform="translate(479.546708 613.442188)scale(0.1 -0.1)">
       <use xlink:href="#DejaVuSans-32"/>
       <use x="63.623047" xlink:href="#DejaVuSans-30"/>
       <use x="127.246094" xlink:href="#DejaVuSans-30"/>
      </g>
     </g>
    </g>
    <g id="xtick_6">
     <g id="line2d_6">
      <g>
       <use style="stroke:#000000;stroke-width:0.8;" x="589.909308" xlink:href="#m29a8e39759" y="598.84375"/>
      </g>
     </g>
     <g id="text_6">
      <!-- 250 -->
      <g transform="translate(580.365558 613.442188)scale(0.1 -0.1)">
       <use xlink:href="#DejaVuSans-32"/>
       <use x="63.623047" xlink:href="#DejaVuSans-35"/>
       <use x="127.246094" xlink:href="#DejaVuSans-30"/>
      </g>
     </g>
    </g>
    <g id="text_7">
     <!-- Intensity Value -->
     <defs>
      <path d="M 9.8125 72.90625 
L 19.671875 72.90625 
L 19.671875 0 
L 9.8125 0 
z
" id="DejaVuSans-49"/>
      <path d="M 54.890625 33.015625 
L 54.890625 0 
L 45.90625 0 
L 45.90625 32.71875 
Q 45.90625 40.484375 42.875 44.328125 
Q 39.84375 48.1875 33.796875 48.1875 
Q 26.515625 48.1875 22.3125 43.546875 
Q 18.109375 38.921875 18.109375 30.90625 
L 18.109375 0 
L 9.078125 0 
L 9.078125 54.6875 
L 18.109375 54.6875 
L 18.109375 46.1875 
Q 21.34375 51.125 25.703125 53.5625 
Q 30.078125 56 35.796875 56 
Q 45.21875 56 50.046875 50.171875 
Q 54.890625 44.34375 54.890625 33.015625 
z
" id="DejaVuSans-6e"/>
      <path d="M 18.3125 70.21875 
L 18.3125 54.6875 
L 36.8125 54.6875 
L 36.8125 47.703125 
L 18.3125 47.703125 
L 18.3125 18.015625 
Q 18.3125 11.328125 20.140625 9.421875 
Q 21.96875 7.515625 27.59375 7.515625 
L 36.8125 7.515625 
L 36.8125 0 
L 27.59375 0 
Q 17.1875 0 13.234375 3.875 
Q 9.28125 7.765625 9.28125 18.015625 
L 9.28125 47.703125 
L 2.6875 47.703125 
L 2.6875 54.6875 
L 9.28125 54.6875 
L 9.28125 70.21875 
z
" id="DejaVuSans-74"/>
      <path d="M 56.203125 29.59375 
L 56.203125 25.203125 
L 14.890625 25.203125 
Q 15.484375 15.921875 20.484375 11.0625 
Q 25.484375 6.203125 34.421875 6.203125 
Q 39.59375 6.203125 44.453125 7.46875 
Q 49.3125 8.734375 54.109375 11.28125 
L 54.109375 2.78125 
Q 49.265625 0.734375 44.1875 -0.34375 
Q 39.109375 -1.421875 33.890625 -1.421875 
Q 20.796875 -1.421875 13.15625 6.1875 
Q 5.515625 13.8125 5.515625 26.8125 
Q 5.515625 40.234375 12.765625 48.109375 
Q 20.015625 56 32.328125 56 
Q 43.359375 56 49.78125 48.890625 
Q 56.203125 41.796875 56.203125 29.59375 
z
M 47.21875 32.234375 
Q 47.125 39.59375 43.09375 43.984375 
Q 39.0625 48.390625 32.421875 48.390625 
Q 24.90625 48.390625 20.390625 44.140625 
Q 15.875 39.890625 15.1875 32.171875 
z
" id="DejaVuSans-65"/>
      <path d="M 44.28125 53.078125 
L 44.28125 44.578125 
Q 40.484375 46.53125 36.375 47.5 
Q 32.28125 48.484375 27.875 48.484375 
Q 21.1875 48.484375 17.84375 46.4375 
Q 14.5 44.390625 14.5 40.28125 
Q 14.5 37.15625 16.890625 35.375 
Q 19.28125 33.59375 26.515625 31.984375 
L 29.59375 31.296875 
Q 39.15625 29.25 43.1875 25.515625 
Q 47.21875 21.78125 47.21875 15.09375 
Q 47.21875 7.46875 41.1875 3.015625 
Q 35.15625 -1.421875 24.609375 -1.421875 
Q 20.21875 -1.421875 15.453125 -0.5625 
Q 10.6875 0.296875 5.421875 2 
L 5.421875 11.28125 
Q 10.40625 8.6875 15.234375 7.390625 
Q 20.0625 6.109375 24.8125 6.109375 
Q 31.15625 6.109375 34.5625 8.28125 
Q 37.984375 10.453125 37.984375 14.40625 
Q 37.984375 18.0625 35.515625 20.015625 
Q 33.0625 21.96875 24.703125 23.78125 
L 21.578125 24.515625 
Q 13.234375 26.265625 9.515625 29.90625 
Q 5.8125 33.546875 5.8125 39.890625 
Q 5.8125 47.609375 11.28125 51.796875 
Q 16.75 56 26.8125 56 
Q 31.78125 56 36.171875 55.265625 
Q 40.578125 54.546875 44.28125 53.078125 
z
" id="DejaVuSans-73"/>
      <path d="M 9.421875 54.6875 
L 18.40625 54.6875 
L 18.40625 0 
L 9.421875 0 
z
M 9.421875 75.984375 
L 18.40625 75.984375 
L 18.40625 64.59375 
L 9.421875 64.59375 
z
" id="DejaVuSans-69"/>
      <path d="M 32.171875 -5.078125 
Q 28.375 -14.84375 24.75 -17.8125 
Q 21.140625 -20.796875 15.09375 -20.796875 
L 7.90625 -20.796875 
L 7.90625 -13.28125 
L 13.1875 -13.28125 
Q 16.890625 -13.28125 18.9375 -11.515625 
Q 21 -9.765625 23.484375 -3.21875 
L 25.09375 0.875 
L 2.984375 54.6875 
L 12.5 54.6875 
L 29.59375 11.921875 
L 46.6875 54.6875 
L 56.203125 54.6875 
z
" id="DejaVuSans-79"/>
      <path id="DejaVuSans-20"/>
      <path d="M 28.609375 0 
L 0.78125 72.90625 
L 11.078125 72.90625 
L 34.1875 11.53125 
L 57.328125 72.90625 
L 67.578125 72.90625 
L 39.796875 0 
z
" id="DejaVuSans-56"/>
      <path d="M 34.28125 27.484375 
Q 23.390625 27.484375 19.1875 25 
Q 14.984375 22.515625 14.984375 16.5 
Q 14.984375 11.71875 18.140625 8.90625 
Q 21.296875 6.109375 26.703125 6.109375 
Q 34.1875 6.109375 38.703125 11.40625 
Q 43.21875 16.703125 43.21875 25.484375 
L 43.21875 27.484375 
z
M 52.203125 31.203125 
L 52.203125 0 
L 43.21875 0 
L 43.21875 8.296875 
Q 40.140625 3.328125 35.546875 0.953125 
Q 30.953125 -1.421875 24.3125 -1.421875 
Q 15.921875 -1.421875 10.953125 3.296875 
Q 6 8.015625 6 15.921875 
Q 6 25.140625 12.171875 29.828125 
Q 18.359375 34.515625 30.609375 34.515625 
L 43.21875 34.515625 
L 43.21875 35.40625 
Q 43.21875 41.609375 39.140625 45 
Q 35.0625 48.390625 27.6875 48.390625 
Q 23 48.390625 18.546875 47.265625 
Q 14.109375 46.140625 10.015625 43.890625 
L 10.015625 52.203125 
Q 14.9375 54.109375 19.578125 55.046875 
Q 24.21875 56 28.609375 56 
Q 40.484375 56 46.34375 49.84375 
Q 52.203125 43.703125 52.203125 31.203125 
z
" id="DejaVuSans-61"/>
      <path d="M 9.421875 75.984375 
L 18.40625 75.984375 
L 18.40625 0 
L 9.421875 0 
z
" id="DejaVuSans-6c"/>
      <path d="M 8.5 21.578125 
L 8.5 54.6875 
L 17.484375 54.6875 
L 17.484375 21.921875 
Q 17.484375 14.15625 20.5 10.265625 
Q 23.53125 6.390625 29.59375 6.390625 
Q 36.859375 6.390625 41.078125 11.03125 
Q 45.3125 15.671875 45.3125 23.6875 
L 45.3125 54.6875 
L 54.296875 54.6875 
L 54.296875 0 
L 45.3125 0 
L 45.3125 8.40625 
Q 42.046875 3.421875 37.71875 1 
Q 33.40625 -1.421875 27.6875 -1.421875 
Q 18.265625 -1.421875 13.375 4.4375 
Q 8.5 10.296875 8.5 21.578125 
z
M 31.109375 56 
z
" id="DejaVuSans-75"/>
     </defs>
     <g transform="translate(305.438281 627.120312)scale(0.1 -0.1)">
      <use xlink:href="#DejaVuSans-49"/>
      <use x="29.492188" xlink:href="#DejaVuSans-6e"/>
      <use x="92.871094" xlink:href="#DejaVuSans-74"/>
      <use x="132.080078" xlink:href="#DejaVuSans-65"/>
      <use x="193.603516" xlink:href="#DejaVuSans-6e"/>
      <use x="256.982422" xlink:href="#DejaVuSans-73"/>
      <use x="309.082031" xlink:href="#DejaVuSans-69"/>
      <use x="336.865234" xlink:href="#DejaVuSans-74"/>
      <use x="376.074219" xlink:href="#DejaVuSans-79"/>
      <use x="435.253906" xlink:href="#DejaVuSans-20"/>
      <use x="467.041016" xlink:href="#DejaVuSans-56"/>
      <use x="535.339844" xlink:href="#DejaVuSans-61"/>
      <use x="596.619141" xlink:href="#DejaVuSans-6c"/>
      <use x="624.402344" xlink:href="#DejaVuSans-75"/>
      <use x="687.78125" xlink:href="#DejaVuSans-65"/>
     </g>
    </g>
   </g>
   <g id="matplotlib.axis_2">
    <g id="ytick_1">
     <g id="line2d_7">
      <defs>
       <path d="M 0 0 
L -3.5 0 
" id="m24397fccdd" style="stroke:#000000;stroke-width:0.8;"/>
      </defs>
      <g>
       <use style="stroke:#000000;stroke-width:0.8;" x="60.10625" xlink:href="#m24397fccdd" y="598.84375"/>
      </g>
     </g>
     <g id="text_8">
      <!-- 0.000 -->
      <defs>
       <path d="M 10.6875 12.40625 
L 21 12.40625 
L 21 0 
L 10.6875 0 
z
" id="DejaVuSans-2e"/>
      </defs>
      <g transform="translate(24.478125 602.642969)scale(0.1 -0.1)">
       <use xlink:href="#DejaVuSans-30"/>
       <use x="63.623047" xlink:href="#DejaVuSans-2e"/>
       <use x="95.410156" xlink:href="#DejaVuSans-30"/>
       <use x="159.033203" xlink:href="#DejaVuSans-30"/>
       <use x="222.65625" xlink:href="#DejaVuSans-30"/>
      </g>
     </g>
    </g>
    <g id="ytick_2">
     <g id="line2d_8">
      <g>
       <use style="stroke:#000000;stroke-width:0.8;" x="60.10625" xlink:href="#m24397fccdd" y="501.469661"/>
      </g>
     </g>
     <g id="text_9">
      <!-- 0.005 -->
      <g transform="translate(24.478125 505.26888)scale(0.1 -0.1)">
       <use xlink:href="#DejaVuSans-30"/>
       <use x="63.623047" xlink:href="#DejaVuSans-2e"/>
       <use x="95.410156" xlink:href="#DejaVuSans-30"/>
       <use x="159.033203" xlink:href="#DejaVuSans-30"/>
       <use x="222.65625" xlink:href="#DejaVuSans-35"/>
      </g>
     </g>
    </g>
    <g id="ytick_3">
     <g id="line2d_9">
      <g>
       <use style="stroke:#000000;stroke-width:0.8;" x="60.10625" xlink:href="#m24397fccdd" y="404.095573"/>
      </g>
     </g>
     <g id="text_10">
      <!-- 0.010 -->
      <g transform="translate(24.478125 407.894792)scale(0.1 -0.1)">
       <use xlink:href="#DejaVuSans-30"/>
       <use x="63.623047" xlink:href="#DejaVuSans-2e"/>
       <use x="95.410156" xlink:href="#DejaVuSans-30"/>
       <use x="159.033203" xlink:href="#DejaVuSans-31"/>
       <use x="222.65625" xlink:href="#DejaVuSans-30"/>
      </g>
     </g>
    </g>
    <g id="ytick_4">
     <g id="line2d_10">
      <g>
       <use style="stroke:#000000;stroke-width:0.8;" x="60.10625" xlink:href="#m24397fccdd" y="306.721484"/>
      </g>
     </g>
     <g id="text_11">
      <!-- 0.015 -->
      <g transform="translate(24.478125 310.520703)scale(0.1 -0.1)">
       <use xlink:href="#DejaVuSans-30"/>
       <use x="63.623047" xlink:href="#DejaVuSans-2e"/>
       <use x="95.410156" xlink:href="#DejaVuSans-30"/>
       <use x="159.033203" xlink:href="#DejaVuSans-31"/>
       <use x="222.65625" xlink:href="#DejaVuSans-35"/>
      </g>
     </g>
    </g>
    <g id="ytick_5">
     <g id="line2d_11">
      <g>
       <use style="stroke:#000000;stroke-width:0.8;" x="60.10625" xlink:href="#m24397fccdd" y="209.347396"/>
      </g>
     </g>
     <g id="text_12">
      <!-- 0.020 -->
      <g transform="translate(24.478125 213.146615)scale(0.1 -0.1)">
       <use xlink:href="#DejaVuSans-30"/>
       <use x="63.623047" xlink:href="#DejaVuSans-2e"/>
       <use x="95.410156" xlink:href="#DejaVuSans-30"/>
       <use x="159.033203" xlink:href="#DejaVuSans-32"/>
       <use x="222.65625" xlink:href="#DejaVuSans-30"/>
      </g>
     </g>
    </g>
    <g id="ytick_6">
     <g id="line2d_12">
      <g>
       <use style="stroke:#000000;stroke-width:0.8;" x="60.10625" xlink:href="#m24397fccdd" y="111.973307"/>
      </g>
     </g>
     <g id="text_13">
      <!-- 0.025 -->
      <g transform="translate(24.478125 115.772526)scale(0.1 -0.1)">
       <use xlink:href="#DejaVuSans-30"/>
       <use x="63.623047" xlink:href="#DejaVuSans-2e"/>
       <use x="95.410156" xlink:href="#DejaVuSans-30"/>
       <use x="159.033203" xlink:href="#DejaVuSans-32"/>
       <use x="222.65625" xlink:href="#DejaVuSans-35"/>
      </g>
     </g>
    </g>
    <g id="ytick_7">
     <g id="line2d_13">
      <g>
       <use style="stroke:#000000;stroke-width:0.8;" x="60.10625" xlink:href="#m24397fccdd" y="14.599219"/>
      </g>
     </g>
     <g id="text_14">
      <!-- 0.030 -->
      <defs>
       <path d="M 40.578125 39.3125 
Q 47.65625 37.796875 51.625 33 
Q 55.609375 28.21875 55.609375 21.1875 
Q 55.609375 10.40625 48.1875 4.484375 
Q 40.765625 -1.421875 27.09375 -1.421875 
Q 22.515625 -1.421875 17.65625 -0.515625 
Q 12.796875 0.390625 7.625 2.203125 
L 7.625 11.71875 
Q 11.71875 9.328125 16.59375 8.109375 
Q 21.484375 6.890625 26.8125 6.890625 
Q 36.078125 6.890625 40.9375 10.546875 
Q 45.796875 14.203125 45.796875 21.1875 
Q 45.796875 27.640625 41.28125 31.265625 
Q 36.765625 34.90625 28.71875 34.90625 
L 20.21875 34.90625 
L 20.21875 43.015625 
L 29.109375 43.015625 
Q 36.375 43.015625 40.234375 45.921875 
Q 44.09375 48.828125 44.09375 54.296875 
Q 44.09375 59.90625 40.109375 62.90625 
Q 36.140625 65.921875 28.71875 65.921875 
Q 24.65625 65.921875 20.015625 65.03125 
Q 15.375 64.15625 9.8125 62.3125 
L 9.8125 71.09375 
Q 15.4375 72.65625 20.34375 73.4375 
Q 25.25 74.21875 29.59375 74.21875 
Q 40.828125 74.21875 47.359375 69.109375 
Q 53.90625 64.015625 53.90625 55.328125 
Q 53.90625 49.265625 50.4375 45.09375 
Q 46.96875 40.921875 40.578125 39.3125 
z
" id="DejaVuSans-33"/>
      </defs>
      <g transform="translate(24.478125 18.398438)scale(0.1 -0.1)">
       <use xlink:href="#DejaVuSans-30"/>
       <use x="63.623047" xlink:href="#DejaVuSans-2e"/>
       <use x="95.410156" xlink:href="#DejaVuSans-30"/>
       <use x="159.033203" xlink:href="#DejaVuSans-33"/>
       <use x="222.65625" xlink:href="#DejaVuSans-30"/>
      </g>
     </g>
    </g>
    <g id="text_15">
     <!-- Proportion of Image -->
     <defs>
      <path d="M 19.671875 64.796875 
L 19.671875 37.40625 
L 32.078125 37.40625 
Q 38.96875 37.40625 42.71875 40.96875 
Q 46.484375 44.53125 46.484375 51.125 
Q 46.484375 57.671875 42.71875 61.234375 
Q 38.96875 64.796875 32.078125 64.796875 
z
M 9.8125 72.90625 
L 32.078125 72.90625 
Q 44.34375 72.90625 50.609375 67.359375 
Q 56.890625 61.8125 56.890625 51.125 
Q 56.890625 40.328125 50.609375 34.8125 
Q 44.34375 29.296875 32.078125 29.296875 
L 19.671875 29.296875 
L 19.671875 0 
L 9.8125 0 
z
" id="DejaVuSans-50"/>
      <path d="M 41.109375 46.296875 
Q 39.59375 47.171875 37.8125 47.578125 
Q 36.03125 48 33.890625 48 
Q 26.265625 48 22.1875 43.046875 
Q 18.109375 38.09375 18.109375 28.8125 
L 18.109375 0 
L 9.078125 0 
L 9.078125 54.6875 
L 18.109375 54.6875 
L 18.109375 46.1875 
Q 20.953125 51.171875 25.484375 53.578125 
Q 30.03125 56 36.53125 56 
Q 37.453125 56 38.578125 55.875 
Q 39.703125 55.765625 41.0625 55.515625 
z
" id="DejaVuSans-72"/>
      <path d="M 30.609375 48.390625 
Q 23.390625 48.390625 19.1875 42.75 
Q 14.984375 37.109375 14.984375 27.296875 
Q 14.984375 17.484375 19.15625 11.84375 
Q 23.34375 6.203125 30.609375 6.203125 
Q 37.796875 6.203125 41.984375 11.859375 
Q 46.1875 17.53125 46.1875 27.296875 
Q 46.1875 37.015625 41.984375 42.703125 
Q 37.796875 48.390625 30.609375 48.390625 
z
M 30.609375 56 
Q 42.328125 56 49.015625 48.375 
Q 55.71875 40.765625 55.71875 27.296875 
Q 55.71875 13.875 49.015625 6.21875 
Q 42.328125 -1.421875 30.609375 -1.421875 
Q 18.84375 -1.421875 12.171875 6.21875 
Q 5.515625 13.875 5.515625 27.296875 
Q 5.515625 40.765625 12.171875 48.375 
Q 18.84375 56 30.609375 56 
z
" id="DejaVuSans-6f"/>
      <path d="M 18.109375 8.203125 
L 18.109375 -20.796875 
L 9.078125 -20.796875 
L 9.078125 54.6875 
L 18.109375 54.6875 
L 18.109375 46.390625 
Q 20.953125 51.265625 25.265625 53.625 
Q 29.59375 56 35.59375 56 
Q 45.5625 56 51.78125 48.09375 
Q 58.015625 40.1875 58.015625 27.296875 
Q 58.015625 14.40625 51.78125 6.484375 
Q 45.5625 -1.421875 35.59375 -1.421875 
Q 29.59375 -1.421875 25.265625 0.953125 
Q 20.953125 3.328125 18.109375 8.203125 
z
M 48.6875 27.296875 
Q 48.6875 37.203125 44.609375 42.84375 
Q 40.53125 48.484375 33.40625 48.484375 
Q 26.265625 48.484375 22.1875 42.84375 
Q 18.109375 37.203125 18.109375 27.296875 
Q 18.109375 17.390625 22.1875 11.75 
Q 26.265625 6.109375 33.40625 6.109375 
Q 40.53125 6.109375 44.609375 11.75 
Q 48.6875 17.390625 48.6875 27.296875 
z
" id="DejaVuSans-70"/>
      <path d="M 37.109375 75.984375 
L 37.109375 68.5 
L 28.515625 68.5 
Q 23.6875 68.5 21.796875 66.546875 
Q 19.921875 64.59375 19.921875 59.515625 
L 19.921875 54.6875 
L 34.71875 54.6875 
L 34.71875 47.703125 
L 19.921875 47.703125 
L 19.921875 0 
L 10.890625 0 
L 10.890625 47.703125 
L 2.296875 47.703125 
L 2.296875 54.6875 
L 10.890625 54.6875 
L 10.890625 58.5 
Q 10.890625 67.625 15.140625 71.796875 
Q 19.390625 75.984375 28.609375 75.984375 
z
" id="DejaVuSans-66"/>
      <path d="M 52 44.1875 
Q 55.375 50.25 60.0625 53.125 
Q 64.75 56 71.09375 56 
Q 79.640625 56 84.28125 50.015625 
Q 88.921875 44.046875 88.921875 33.015625 
L 88.921875 0 
L 79.890625 0 
L 79.890625 32.71875 
Q 79.890625 40.578125 77.09375 44.375 
Q 74.3125 48.1875 68.609375 48.1875 
Q 61.625 48.1875 57.5625 43.546875 
Q 53.515625 38.921875 53.515625 30.90625 
L 53.515625 0 
L 44.484375 0 
L 44.484375 32.71875 
Q 44.484375 40.625 41.703125 44.40625 
Q 38.921875 48.1875 33.109375 48.1875 
Q 26.21875 48.1875 22.15625 43.53125 
Q 18.109375 38.875 18.109375 30.90625 
L 18.109375 0 
L 9.078125 0 
L 9.078125 54.6875 
L 18.109375 54.6875 
L 18.109375 46.1875 
Q 21.1875 51.21875 25.484375 53.609375 
Q 29.78125 56 35.6875 56 
Q 41.65625 56 45.828125 52.96875 
Q 50 49.953125 52 44.1875 
z
" id="DejaVuSans-6d"/>
      <path d="M 45.40625 27.984375 
Q 45.40625 37.75 41.375 43.109375 
Q 37.359375 48.484375 30.078125 48.484375 
Q 22.859375 48.484375 18.828125 43.109375 
Q 14.796875 37.75 14.796875 27.984375 
Q 14.796875 18.265625 18.828125 12.890625 
Q 22.859375 7.515625 30.078125 7.515625 
Q 37.359375 7.515625 41.375 12.890625 
Q 45.40625 18.265625 45.40625 27.984375 
z
M 54.390625 6.78125 
Q 54.390625 -7.171875 48.1875 -13.984375 
Q 42 -20.796875 29.203125 -20.796875 
Q 24.46875 -20.796875 20.265625 -20.09375 
Q 16.0625 -19.390625 12.109375 -17.921875 
L 12.109375 -9.1875 
Q 16.0625 -11.328125 19.921875 -12.34375 
Q 23.78125 -13.375 27.78125 -13.375 
Q 36.625 -13.375 41.015625 -8.765625 
Q 45.40625 -4.15625 45.40625 5.171875 
L 45.40625 9.625 
Q 42.625 4.78125 38.28125 2.390625 
Q 33.9375 0 27.875 0 
Q 17.828125 0 11.671875 7.65625 
Q 5.515625 15.328125 5.515625 27.984375 
Q 5.515625 40.671875 11.671875 48.328125 
Q 17.828125 56 27.875 56 
Q 33.9375 56 38.28125 53.609375 
Q 42.625 51.21875 45.40625 46.390625 
L 45.40625 54.6875 
L 54.390625 54.6875 
z
" id="DejaVuSans-67"/>
     </defs>
     <g transform="translate(18.398438 356.373047)rotate(-90)scale(0.1 -0.1)">
      <use xlink:href="#DejaVuSans-50"/>
      <use x="60.287109" xlink:href="#DejaVuSans-72"/>
      <use x="101.369141" xlink:href="#DejaVuSans-6f"/>
      <use x="162.550781" xlink:href="#DejaVuSans-70"/>
      <use x="226.027344" xlink:href="#DejaVuSans-6f"/>
      <use x="287.208984" xlink:href="#DejaVuSans-72"/>
      <use x="328.322266" xlink:href="#DejaVuSans-74"/>
      <use x="367.53125" xlink:href="#DejaVuSans-69"/>
      <use x="395.314453" xlink:href="#DejaVuSans-6f"/>
      <use x="456.496094" xlink:href="#DejaVuSans-6e"/>
      <use x="519.875" xlink:href="#DejaVuSans-20"/>
      <use x="551.662109" xlink:href="#DejaVuSans-6f"/>
      <use x="612.84375" xlink:href="#DejaVuSans-66"/>
      <use x="648.048828" xlink:href="#DejaVuSans-20"/>
      <use x="679.835938" xlink:href="#DejaVuSans-49"/>
      <use x="709.328125" xlink:href="#DejaVuSans-6d"/>
      <use x="806.740234" xlink:href="#DejaVuSans-61"/>
      <use x="868.019531" xlink:href="#DejaVuSans-67"/>
      <use x="931.496094" xlink:href="#DejaVuSans-65"/>
     </g>
    </g>
   </g>
   <g id="line2d_14">
    <path clip-path="url(#p6df003a5cf)" d="M 93.366596 -1 
L 93.880565 81.349398 
L 95.896942 281.93384 
L 97.913319 391.856815 
L 99.929696 400.987797 
L 101.946073 480.762323 
L 103.96245 490.244497 
L 105.978827 500.753231 
L 107.995204 505.183648 
L 110.011581 511.072861 
L 112.027958 513.963438 
L 114.044335 485.895124 
L 116.060712 515.638352 
L 118.077089 517.664458 
L 120.093466 521.770698 
L 122.109843 524.202025 
L 124.12622 523.526656 
L 126.142597 523.958892 
L 128.158974 502.320085 
L 130.175351 528.821545 
L 132.191728 526.687381 
L 134.208105 531.063768 
L 136.224482 530.874665 
L 138.240859 533.251962 
L 140.257236 534.008375 
L 142.273613 535.57523 
L 144.28999 513.125981 
L 146.306367 534.683743 
L 148.322744 534.386581 
L 150.339121 535.5212 
L 152.355498 536.169554 
L 154.371875 536.952982 
L 156.388252 538.006556 
L 158.404629 515.827455 
L 160.421006 538.762969 
L 162.437383 535.440156 
L 164.45376 535.06195 
L 166.470137 535.413141 
L 168.486514 535.088965 
L 170.502891 536.709849 
L 172.519268 517.556399 
L 174.535645 538.033571 
L 176.552022 540.978178 
L 180.584776 539.627441 
L 182.601153 541.950708 
L 184.61753 540.735045 
L 186.633907 539.330279 
L 188.650284 521.122344 
L 190.666661 540.140721 
L 192.683038 540.167736 
L 194.699415 541.977723 
L 196.715792 545.43561 
L 198.732169 544.92233 
L 200.748546 543.89577 
L 202.764923 530.118252 
L 204.7813 550.433337 
L 206.797677 551.162735 
L 208.814054 551.513926 
L 210.830431 554.188385 
L 212.846808 555.025842 
L 214.863185 557.538213 
L 216.879562 543.814725 
L 218.895939 560.94207 
L 220.912316 561.887586 
L 222.928693 560.752967 
L 224.94507 564.07578 
L 226.961447 563.184294 
L 228.977824 567.020387 
L 230.994201 559.618348 
L 233.010578 570.451259 
L 235.026955 571.720951 
L 237.043332 572.288261 
L 239.059709 574.692573 
L 241.076086 574.989735 
L 243.092463 576.178383 
L 245.10884 576.475546 
L 247.125217 570.397229 
L 249.141594 578.258518 
L 251.157971 580.527757 
L 253.174348 581.608346 
L 255.190725 581.824464 
L 257.207102 580.689845 
L 259.223479 583.067142 
L 261.239856 578.177474 
L 263.256233 583.904599 
L 265.27261 584.661012 
L 267.288987 583.904599 
L 269.305364 586.660102 
L 271.321741 585.255336 
L 273.338118 586.389955 
L 275.354495 583.688481 
L 277.370872 587.416515 
L 281.403626 588.010839 
L 283.420003 588.064869 
L 285.43638 587.44353 
L 287.452757 587.90278 
L 289.469134 589.388591 
L 291.485511 586.498014 
L 293.501888 588.929341 
L 295.518265 588.280987 
L 297.534642 589.712768 
L 299.551019 589.199488 
L 301.567396 591.225593 
L 303.583773 590.874402 
L 305.60015 589.334562 
L 307.616527 592.252154 
L 309.632904 592.171109 
L 311.649281 591.819918 
L 313.665658 592.279168 
L 315.682035 591.792903 
L 317.698412 591.982006 
L 319.714789 590.199033 
L 321.731166 592.171109 
L 323.747543 592.306183 
L 325.76392 593.035581 
L 327.780297 592.711404 
L 329.796674 592.549316 
L 331.813051 593.062596 
L 333.829428 591.468726 
L 335.845805 593.737964 
L 337.862182 593.413787 
L 339.878559 593.548861 
L 341.894936 594.089156 
L 343.911314 593.683935 
L 345.927691 594.035126 
L 347.944068 594.197215 
L 349.960445 591.819918 
L 351.976822 594.656465 
L 353.993199 594.386318 
L 358.025953 595.169745 
L 360.04233 595.061686 
L 362.058707 594.68348 
L 364.075084 593.386773 
L 366.091461 594.872583 
L 368.107838 594.899598 
L 370.124215 595.088701 
L 372.140592 594.521392 
L 374.156969 595.683025 
L 376.173346 595.277804 
L 378.189723 594.143185 
L 380.2061 595.061686 
L 382.222477 595.19676 
L 384.238854 595.818099 
L 386.255231 595.034672 
L 388.271608 596.007202 
L 392.304362 595.412878 
L 394.320739 594.062141 
L 396.337116 596.034217 
L 398.353493 595.872129 
L 400.36987 595.493922 
L 402.386247 595.656011 
L 404.402624 596.142276 
L 406.419001 596.385409 
L 408.435378 595.791084 
L 410.451755 596.034217 
L 412.468132 596.493468 
L 414.484509 596.250335 
L 416.500886 596.358394 
L 418.517263 596.304364 
L 420.53364 596.088247 
L 422.550017 596.115261 
L 424.566394 596.601527 
L 426.582771 596.7366 
L 430.615525 596.304364 
L 432.631902 597.168836 
L 436.664656 596.22332 
L 438.681033 596.7366 
L 440.69741 596.844659 
L 442.713787 597.114807 
L 444.730164 596.979733 
L 446.746541 597.24988 
L 448.762918 597.060777 
L 450.779295 597.114807 
L 452.795672 596.655556 
L 454.812049 597.628087 
L 456.828426 597.709131 
L 458.844803 597.574057 
L 460.86118 597.24988 
L 462.877557 597.465998 
L 464.893934 597.438984 
L 466.910311 597.114807 
L 468.926688 597.682116 
L 470.943065 597.520028 
L 472.959442 597.871219 
L 474.975819 597.574057 
L 476.992196 597.736146 
L 481.02495 597.465998 
L 483.041327 598.087337 
L 485.057704 597.736146 
L 487.074081 597.925249 
L 489.090458 597.601072 
L 491.106835 597.952264 
L 493.123212 597.81719 
L 497.155966 597.76316 
L 499.172343 598.195396 
L 501.18872 597.790175 
L 503.205097 598.087337 
L 505.221474 597.871219 
L 507.237851 598.006293 
L 509.254228 597.979278 
L 511.270605 598.141367 
L 513.286982 598.006293 
L 515.303359 598.27644 
L 517.319736 597.979278 
L 521.35249 598.27644 
L 523.368867 598.195396 
L 525.385244 597.925249 
L 527.401621 598.303455 
L 529.417998 598.141367 
L 531.434375 598.384499 
L 533.450752 598.249426 
L 535.467129 598.357485 
L 539.499883 598.168382 
L 541.51626 598.357485 
L 545.549014 598.222411 
L 547.565391 598.438529 
L 549.581768 598.492558 
L 553.614522 598.27644 
L 555.630899 598.303455 
L 557.647276 598.600617 
L 563.696407 598.411514 
L 567.729161 598.519573 
L 569.745538 598.249426 
L 571.761915 598.681662 
L 575.794669 598.195396 
L 579.827423 598.465544 
L 581.8438 598.708676 
L 587.892931 598.27644 
L 589.909308 598.519573 
L 595.958439 598.546588 
L 597.974816 598.627632 
L 599.991193 586.011749 
L 599.991193 586.011749 
" style="fill:none;stroke:#1f77b4;stroke-linecap:square;stroke-width:1.5;"/>
   </g>
   <g id="line2d_15">
    <path clip-path="url(#p6df003a5cf)" d="M 85.815057 413.115069 
L 87.831434 325.890263 
L 89.847811 261.599566 
L 91.864188 275.13445 
L 93.880565 330.77786 
L 95.896942 354.087938 
L 97.913319 398.452278 
L 99.929696 367.622821 
L 101.946073 449.584061 
L 103.96245 461.615069 
L 105.978827 469.886386 
L 107.995204 475.149952 
L 110.011581 495.076309 
L 112.027958 486.053053 
L 114.044335 440.936774 
L 116.060712 489.060805 
L 118.077089 480.413518 
L 120.093466 486.429022 
L 122.109843 475.149952 
L 124.12622 477.781735 
L 126.142597 487.932898 
L 128.158974 441.688712 
L 130.175351 483.42127 
L 132.191728 475.90189 
L 134.208105 482.293363 
L 136.224482 477.405766 
L 138.240859 468.006542 
L 140.257236 467.630573 
L 142.273613 452.215844 
L 144.28999 423.266232 
L 146.306367 453.343751 
L 148.322744 434.545301 
L 150.339121 428.905767 
L 152.355498 431.537549 
L 154.371875 446.576309 
L 156.388252 433.041425 
L 158.404629 376.270108 
L 160.421006 429.657705 
L 162.437383 413.867007 
L 164.45376 422.890263 
L 166.470137 421.386387 
L 168.486514 419.130573 
L 170.502891 410.859255 
L 172.519268 355.215845 
L 174.535645 408.227472 
L 176.552022 429.657705 
L 178.568399 411.235224 
L 180.584776 424.01817 
L 182.601153 431.161581 
L 184.61753 435.673208 
L 186.633907 427.77786 
L 188.650284 376.270108 
L 190.666661 442.816619 
L 192.683038 436.425146 
L 194.699415 440.560805 
L 196.715792 445.448402 
L 198.732169 437.553053 
L 200.748546 436.801115 
L 202.764923 390.180961 
L 204.7813 449.584061 
L 206.797677 443.192588 
L 208.814054 438.304991 
L 210.830431 442.816619 
L 212.846808 437.177084 
L 214.863185 425.146077 
L 216.879562 352.208093 
L 218.895939 431.537549 
L 220.912316 422.514294 
L 222.928693 427.025922 
L 224.94507 433.041425 
L 226.961447 429.281736 
L 228.977824 436.049177 
L 230.994201 387.173209 
L 233.010578 431.913518 
L 235.026955 434.92127 
L 237.043332 443.944526 
L 239.059709 439.432898 
L 241.076086 443.192588 
L 243.092463 454.095689 
L 245.10884 446.952278 
L 247.125217 404.091813 
L 249.141594 460.487162 
L 251.157971 463.118945 
L 253.174348 477.781735 
L 255.190725 472.518169 
L 257.207102 452.215844 
L 259.223479 472.518169 
L 261.239856 447.704216 
L 263.256233 470.638324 
L 265.27261 483.797239 
L 267.288987 479.66158 
L 269.305364 494.324371 
L 271.321741 480.789487 
L 273.338118 495.076309 
L 275.354495 468.382511 
L 277.370872 498.46003 
L 279.387249 502.971658 
L 281.403626 501.843751 
L 283.420003 499.211968 
L 285.43638 498.46003 
L 287.452757 499.211968 
L 289.469134 511.618944 
L 291.485511 491.316619 
L 293.501888 511.242975 
L 295.518265 500.715844 
L 297.534642 520.266231 
L 299.551019 516.88251 
L 301.567396 527.409642 
L 303.583773 531.545301 
L 305.60015 520.6422 
L 307.616527 546.960029 
L 309.632904 544.328246 
L 311.649281 542.448402 
L 313.665658 543.576308 
L 315.682035 538.312743 
L 317.698412 543.200339 
L 319.714789 526.657704 
L 321.731166 539.064681 
L 323.747543 542.072433 
L 325.76392 547.711967 
L 327.780297 546.208091 
L 329.796674 543.952277 
L 331.813051 546.960029 
L 333.829428 534.553053 
L 335.845805 557.487161 
L 337.862182 555.231347 
L 339.878559 553.727471 
L 341.894936 562.750727 
L 343.911314 558.239099 
L 345.927691 555.607316 
L 347.944068 560.870882 
L 349.960445 542.448402 
L 351.976822 567.262355 
L 353.993199 565.758479 
L 356.009576 568.390262 
L 358.025953 568.390262 
L 360.04233 569.894138 
L 362.058707 566.134448 
L 364.075084 556.359254 
L 366.091461 568.390262 
L 368.107838 569.1422 
L 370.124215 571.773983 
L 372.140592 565.758479 
L 374.156969 574.029797 
L 376.173346 571.398014 
L 378.189723 567.638324 
L 380.2061 568.014293 
L 382.222477 572.90189 
L 384.238854 577.413518 
L 386.255231 572.149952 
L 388.271608 575.533673 
L 390.287985 573.277859 
L 392.304362 574.781735 
L 394.320739 563.126696 
L 396.337116 579.293363 
L 398.353493 574.029797 
L 400.36987 574.781735 
L 402.386247 572.90189 
L 404.402624 579.669332 
L 406.419001 580.421269 
L 408.435378 574.781735 
L 410.451755 578.541425 
L 412.468132 577.413518 
L 414.484509 575.533673 
L 416.500886 577.037549 
L 418.517263 580.421269 
L 420.53364 575.909642 
L 422.550017 580.045301 
L 424.566394 581.173207 
L 426.582771 585.308866 
L 428.599148 579.669332 
L 430.615525 576.285611 
L 432.631902 584.556928 
L 434.648279 583.80499 
L 436.664656 581.925145 
L 440.69741 584.932897 
L 442.713787 584.556928 
L 444.730164 589.444525 
L 446.746541 587.940649 
L 448.762918 588.316618 
L 450.779295 588.316618 
L 452.795672 581.549176 
L 454.812049 590.196463 
L 456.828426 589.444525 
L 458.844803 591.700339 
L 460.86118 589.444525 
L 462.877557 587.940649 
L 464.893934 590.196463 
L 466.910311 589.068556 
L 470.943065 592.076308 
L 472.959442 593.204215 
L 474.975819 590.948401 
L 476.992196 594.708091 
L 479.008573 592.828246 
L 481.02495 590.196463 
L 483.041327 595.08406 
L 485.057704 591.32437 
L 487.074081 593.204215 
L 489.090458 589.444525 
L 491.106835 593.204215 
L 493.123212 591.700339 
L 495.139589 592.828246 
L 497.155966 592.076308 
L 499.172343 594.332122 
L 501.18872 592.828246 
L 503.205097 594.708091 
L 505.221474 593.956153 
L 507.237851 594.332122 
L 509.254228 593.580184 
L 511.270605 592.452277 
L 515.303359 596.211967 
L 517.319736 594.708091 
L 519.336113 594.332122 
L 521.35249 596.211967 
L 523.368867 595.08406 
L 525.385244 594.332122 
L 527.401621 597.339874 
L 531.434375 595.835998 
L 533.450752 596.587936 
L 535.467129 598.091812 
L 537.483506 597.339874 
L 539.499883 594.708091 
L 543.532637 596.963905 
L 545.549014 596.211967 
L 547.565391 597.715843 
L 549.581768 598.091812 
L 551.598145 596.963905 
L 553.614522 596.587936 
L 555.630899 597.339874 
L 557.647276 598.467781 
L 559.663653 596.587936 
L 561.68003 598.091812 
L 563.696407 598.091812 
L 565.712784 597.715843 
L 567.729161 598.091812 
L 569.745538 596.211967 
L 571.761915 598.84375 
L 573.778292 598.467781 
L 575.794669 597.715843 
L 577.811046 597.339874 
L 579.827423 597.715843 
L 581.8438 597.715843 
L 583.860177 598.84375 
L 585.876554 597.339874 
L 587.892931 596.963905 
L 589.909308 598.091812 
L 591.925685 597.715843 
L 593.942062 598.84375 
L 595.958439 598.091812 
L 597.974816 598.84375 
L 599.991193 557.487161 
L 599.991193 557.487161 
" style="fill:none;stroke:#ff7f0e;stroke-linecap:square;stroke-width:1.5;"/>
   </g>
   <g id="line2d_16">
    <path clip-path="url(#p6df003a5cf)" d="M 85.815057 598.84375 
L 156.388252 598.84375 
L 158.404629 595.828606 
L 162.437383 595.828606 
L 166.470137 583.768028 
L 168.486514 580.752884 
L 170.502891 595.828606 
L 172.519268 568.692306 
L 174.535645 568.692306 
L 176.552022 577.737739 
L 178.568399 544.571151 
L 180.584776 562.662017 
L 182.601153 571.70745 
L 184.61753 526.480284 
L 186.633907 553.616584 
L 188.650284 505.374273 
L 190.666661 547.586295 
L 192.683038 553.616584 
L 194.699415 517.434851 
L 196.715792 538.540862 
L 200.748546 532.510573 
L 202.764923 502.359129 
L 204.7813 508.389418 
L 206.797677 508.389418 
L 208.814054 544.571151 
L 210.830431 472.207685 
L 212.846808 502.359129 
L 214.863185 493.313696 
L 216.879562 402.859364 
L 218.895939 475.222829 
L 220.912316 420.95023 
L 222.928693 429.995663 
L 224.94507 433.010808 
L 226.961447 469.192541 
L 228.977824 448.08653 
L 230.994201 423.965375 
L 233.010578 420.95023 
L 235.026955 372.70792 
L 237.043332 405.874508 
L 239.059709 390.798786 
L 241.076086 429.995663 
L 243.092463 378.738208 
L 245.10884 366.677631 
L 247.125217 330.495898 
L 249.141594 348.586764 
L 251.157971 387.783642 
L 253.174348 375.723064 
L 255.190725 390.798786 
L 257.207102 300.344454 
L 259.223479 372.70792 
L 261.239856 330.495898 
L 263.256233 303.359598 
L 265.27261 402.859364 
L 267.288987 330.495898 
L 269.305364 312.405032 
L 271.321741 264.162721 
L 273.338118 336.526187 
L 275.354495 206.874977 
L 277.370872 339.541331 
L 279.387249 294.314165 
L 281.403626 306.374743 
L 283.420003 294.314165 
L 285.43638 303.359598 
L 287.452757 246.071855 
L 289.469134 315.420176 
L 291.485511 194.8144 
L 293.501888 312.405032 
L 295.518265 255.117288 
L 297.534642 312.405032 
L 299.551019 339.541331 
L 301.567396 333.511042 
L 303.583773 381.753353 
L 305.60015 372.70792 
L 307.616527 433.010808 
L 309.632904 417.935086 
L 311.649281 433.010808 
L 313.665658 426.980519 
L 315.682035 387.783642 
L 317.698412 420.95023 
L 319.714789 375.723064 
L 321.731166 417.935086 
L 323.747543 433.010808 
L 325.76392 451.101674 
L 327.780297 436.025952 
L 329.796674 423.965375 
L 331.813051 420.95023 
L 333.829428 366.677631 
L 335.845805 484.268263 
L 337.862182 490.298551 
L 339.878559 490.298551 
L 341.894936 484.268263 
L 343.911314 493.313696 
L 345.927691 490.298551 
L 347.944068 499.343985 
L 349.960445 466.177396 
L 351.976822 514.419707 
L 353.993199 520.449995 
L 356.009576 511.404562 
L 358.025953 520.449995 
L 360.04233 538.540862 
L 362.058707 496.32884 
L 364.075084 490.298551 
L 366.091461 517.434851 
L 368.107838 526.480284 
L 370.124215 520.449995 
L 372.140592 481.253118 
L 374.156969 520.449995 
L 376.173346 538.540862 
L 378.189723 505.374273 
L 380.2061 532.510573 
L 382.222477 544.571151 
L 384.238854 550.60144 
L 386.255231 553.616584 
L 388.271608 550.60144 
L 390.287985 538.540862 
L 392.304362 550.60144 
L 394.320739 520.449995 
L 396.337116 562.662017 
L 398.353493 550.60144 
L 400.36987 562.662017 
L 402.386247 547.586295 
L 404.402624 568.692306 
L 406.419001 559.646873 
L 408.435378 547.586295 
L 410.451755 532.510573 
L 412.468132 550.60144 
L 414.484509 553.616584 
L 416.500886 553.616584 
L 418.517263 562.662017 
L 420.53364 547.586295 
L 422.550017 547.586295 
L 424.566394 550.60144 
L 426.582771 562.662017 
L 430.615525 556.631728 
L 432.631902 562.662017 
L 434.648279 556.631728 
L 436.664656 556.631728 
L 438.681033 562.662017 
L 440.69741 559.646873 
L 442.713787 562.662017 
L 444.730164 583.768028 
L 446.746541 568.692306 
L 448.762918 571.70745 
L 450.779295 571.70745 
L 452.795672 565.677162 
L 454.812049 583.768028 
L 460.86118 574.722595 
L 462.877557 568.692306 
L 464.893934 571.70745 
L 466.910311 577.737739 
L 468.926688 565.677162 
L 470.943065 577.737739 
L 472.959442 568.692306 
L 474.975819 574.722595 
L 476.992196 583.768028 
L 479.008573 577.737739 
L 481.02495 589.798317 
L 483.041327 583.768028 
L 485.057704 580.752884 
L 487.074081 580.752884 
L 489.090458 562.662017 
L 491.106835 580.752884 
L 493.123212 580.752884 
L 495.139589 586.783172 
L 497.155966 583.768028 
L 499.172343 589.798317 
L 503.205097 589.798317 
L 505.221474 583.768028 
L 509.254228 577.737739 
L 511.270605 577.737739 
L 515.303359 595.828606 
L 517.319736 589.798317 
L 519.336113 589.798317 
L 521.35249 592.813461 
L 523.368867 589.798317 
L 525.385244 595.828606 
L 527.401621 592.813461 
L 529.417998 595.828606 
L 531.434375 595.828606 
L 533.450752 592.813461 
L 535.467129 598.84375 
L 537.483506 595.828606 
L 539.499883 595.828606 
L 541.51626 592.813461 
L 543.532637 598.84375 
L 545.549014 595.828606 
L 547.565391 598.84375 
L 549.581768 595.828606 
L 553.614522 595.828606 
L 555.630899 592.813461 
L 557.647276 598.84375 
L 567.729161 598.84375 
L 569.745538 592.813461 
L 571.761915 598.84375 
L 599.991193 598.84375 
L 599.991193 598.84375 
" style="fill:none;stroke:#2ca02c;stroke-linecap:square;stroke-width:1.5;"/>
   </g>
   <g id="patch_3">
    <path d="M 60.10625 598.84375 
L 60.10625 14.599219 
" style="fill:none;stroke:#000000;stroke-linecap:square;stroke-linejoin:miter;stroke-width:0.8;"/>
   </g>
   <g id="patch_4">
    <path d="M 625.7 598.84375 
L 625.7 14.599219 
" style="fill:none;stroke:#000000;stroke-linecap:square;stroke-linejoin:miter;stroke-width:0.8;"/>
   </g>
   <g id="patch_5">
    <path d="M 60.10625 598.84375 
L 625.7 598.84375 
" style="fill:none;stroke:#000000;stroke-linecap:square;stroke-linejoin:miter;stroke-width:0.8;"/>
   </g>
   <g id="patch_6">
    <path d="M 60.10625 14.599219 
L 625.7 14.599219 
" style="fill:none;stroke:#000000;stroke-linecap:square;stroke-linejoin:miter;stroke-width:0.8;"/>
   </g>
   <g id="legend_1">
    <g id="patch_7">
     <path d="M 502.078125 66.633594 
L 618.7 66.633594 
Q 620.7 66.633594 620.7 64.633594 
L 620.7 21.599219 
Q 620.7 19.599219 618.7 19.599219 
L 502.078125 19.599219 
Q 500.078125 19.599219 500.078125 21.599219 
L 500.078125 64.633594 
Q 500.078125 66.633594 502.078125 66.633594 
z
" style="fill:#ffffff;opacity:0.8;stroke:#cccccc;stroke-linejoin:miter;"/>
    </g>
    <g id="line2d_17">
     <path d="M 504.078125 27.697656 
L 524.078125 27.697656 
" style="fill:none;stroke:#1f77b4;stroke-linecap:square;stroke-width:1.5;"/>
    </g>
    <g id="line2d_18"/>
    <g id="text_16">
     <!-- All pixels -->
     <defs>
      <path d="M 34.1875 63.1875 
L 20.796875 26.90625 
L 47.609375 26.90625 
z
M 28.609375 72.90625 
L 39.796875 72.90625 
L 67.578125 0 
L 57.328125 0 
L 50.6875 18.703125 
L 17.828125 18.703125 
L 11.1875 0 
L 0.78125 0 
z
" id="DejaVuSans-41"/>
      <path d="M 54.890625 54.6875 
L 35.109375 28.078125 
L 55.90625 0 
L 45.3125 0 
L 29.390625 21.484375 
L 13.484375 0 
L 2.875 0 
L 24.125 28.609375 
L 4.6875 54.6875 
L 15.28125 54.6875 
L 29.78125 35.203125 
L 44.28125 54.6875 
z
" id="DejaVuSans-78"/>
     </defs>
     <g transform="translate(532.078125 31.197656)scale(0.1 -0.1)">
      <use xlink:href="#DejaVuSans-41"/>
      <use x="68.408203" xlink:href="#DejaVuSans-6c"/>
      <use x="96.191406" xlink:href="#DejaVuSans-6c"/>
      <use x="123.974609" xlink:href="#DejaVuSans-20"/>
      <use x="155.761719" xlink:href="#DejaVuSans-70"/>
      <use x="219.238281" xlink:href="#DejaVuSans-69"/>
      <use x="247.021484" xlink:href="#DejaVuSans-78"/>
      <use x="306.154297" xlink:href="#DejaVuSans-65"/>
      <use x="367.677734" xlink:href="#DejaVuSans-6c"/>
      <use x="395.460938" xlink:href="#DejaVuSans-73"/>
     </g>
    </g>
    <g id="line2d_19">
     <path d="M 504.078125 42.375781 
L 524.078125 42.375781 
" style="fill:none;stroke:#ff7f0e;stroke-linecap:square;stroke-width:1.5;"/>
    </g>
    <g id="line2d_20"/>
    <g id="text_17">
     <!-- All labeled pixels -->
     <defs>
      <path d="M 48.6875 27.296875 
Q 48.6875 37.203125 44.609375 42.84375 
Q 40.53125 48.484375 33.40625 48.484375 
Q 26.265625 48.484375 22.1875 42.84375 
Q 18.109375 37.203125 18.109375 27.296875 
Q 18.109375 17.390625 22.1875 11.75 
Q 26.265625 6.109375 33.40625 6.109375 
Q 40.53125 6.109375 44.609375 11.75 
Q 48.6875 17.390625 48.6875 27.296875 
z
M 18.109375 46.390625 
Q 20.953125 51.265625 25.265625 53.625 
Q 29.59375 56 35.59375 56 
Q 45.5625 56 51.78125 48.09375 
Q 58.015625 40.1875 58.015625 27.296875 
Q 58.015625 14.40625 51.78125 6.484375 
Q 45.5625 -1.421875 35.59375 -1.421875 
Q 29.59375 -1.421875 25.265625 0.953125 
Q 20.953125 3.328125 18.109375 8.203125 
L 18.109375 0 
L 9.078125 0 
L 9.078125 75.984375 
L 18.109375 75.984375 
z
" id="DejaVuSans-62"/>
      <path d="M 45.40625 46.390625 
L 45.40625 75.984375 
L 54.390625 75.984375 
L 54.390625 0 
L 45.40625 0 
L 45.40625 8.203125 
Q 42.578125 3.328125 38.25 0.953125 
Q 33.9375 -1.421875 27.875 -1.421875 
Q 17.96875 -1.421875 11.734375 6.484375 
Q 5.515625 14.40625 5.515625 27.296875 
Q 5.515625 40.1875 11.734375 48.09375 
Q 17.96875 56 27.875 56 
Q 33.9375 56 38.25 53.625 
Q 42.578125 51.265625 45.40625 46.390625 
z
M 14.796875 27.296875 
Q 14.796875 17.390625 18.875 11.75 
Q 22.953125 6.109375 30.078125 6.109375 
Q 37.203125 6.109375 41.296875 11.75 
Q 45.40625 17.390625 45.40625 27.296875 
Q 45.40625 37.203125 41.296875 42.84375 
Q 37.203125 48.484375 30.078125 48.484375 
Q 22.953125 48.484375 18.875 42.84375 
Q 14.796875 37.203125 14.796875 27.296875 
z
" id="DejaVuSans-64"/>
     </defs>
     <g transform="translate(532.078125 45.875781)scale(0.1 -0.1)">
      <use xlink:href="#DejaVuSans-41"/>
      <use x="68.408203" xlink:href="#DejaVuSans-6c"/>
      <use x="96.191406" xlink:href="#DejaVuSans-6c"/>
      <use x="123.974609" xlink:href="#DejaVuSans-20"/>
      <use x="155.761719" xlink:href="#DejaVuSans-6c"/>
      <use x="183.544922" xlink:href="#DejaVuSans-61"/>
      <use x="244.824219" xlink:href="#DejaVuSans-62"/>
      <use x="308.300781" xlink:href="#DejaVuSans-65"/>
      <use x="369.824219" xlink:href="#DejaVuSans-6c"/>
      <use x="397.607422" xlink:href="#DejaVuSans-65"/>
      <use x="459.130859" xlink:href="#DejaVuSans-64"/>
      <use x="522.607422" xlink:href="#DejaVuSans-20"/>
      <use x="554.394531" xlink:href="#DejaVuSans-70"/>
      <use x="617.871094" xlink:href="#DejaVuSans-69"/>
      <use x="645.654297" xlink:href="#DejaVuSans-78"/>
      <use x="704.787109" xlink:href="#DejaVuSans-65"/>
      <use x="766.310547" xlink:href="#DejaVuSans-6c"/>
      <use x="794.09375" xlink:href="#DejaVuSans-73"/>
     </g>
    </g>
    <g id="line2d_21">
     <path d="M 504.078125 57.053906 
L 524.078125 57.053906 
" style="fill:none;stroke:#2ca02c;stroke-linecap:square;stroke-width:1.5;"/>
    </g>
    <g id="line2d_22"/>
    <g id="text_18">
     <!-- Left ventricle -->
     <defs>
      <path d="M 9.8125 72.90625 
L 19.671875 72.90625 
L 19.671875 8.296875 
L 55.171875 8.296875 
L 55.171875 0 
L 9.8125 0 
z
" id="DejaVuSans-4c"/>
      <path d="M 2.984375 54.6875 
L 12.5 54.6875 
L 29.59375 8.796875 
L 46.6875 54.6875 
L 56.203125 54.6875 
L 35.6875 0 
L 23.484375 0 
z
" id="DejaVuSans-76"/>
      <path d="M 48.78125 52.59375 
L 48.78125 44.1875 
Q 44.96875 46.296875 41.140625 47.34375 
Q 37.3125 48.390625 33.40625 48.390625 
Q 24.65625 48.390625 19.8125 42.84375 
Q 14.984375 37.3125 14.984375 27.296875 
Q 14.984375 17.28125 19.8125 11.734375 
Q 24.65625 6.203125 33.40625 6.203125 
Q 37.3125 6.203125 41.140625 7.25 
Q 44.96875 8.296875 48.78125 10.40625 
L 48.78125 2.09375 
Q 45.015625 0.34375 40.984375 -0.53125 
Q 36.96875 -1.421875 32.421875 -1.421875 
Q 20.0625 -1.421875 12.78125 6.34375 
Q 5.515625 14.109375 5.515625 27.296875 
Q 5.515625 40.671875 12.859375 48.328125 
Q 20.21875 56 33.015625 56 
Q 37.15625 56 41.109375 55.140625 
Q 45.0625 54.296875 48.78125 52.59375 
z
" id="DejaVuSans-63"/>
     </defs>
     <g transform="translate(532.078125 60.553906)scale(0.1 -0.1)">
      <use xlink:href="#DejaVuSans-4c"/>
      <use x="55.697266" xlink:href="#DejaVuSans-65"/>
      <use x="117.220703" xlink:href="#DejaVuSans-66"/>
      <use x="152.410156" xlink:href="#DejaVuSans-74"/>
      <use x="191.619141" xlink:href="#DejaVuSans-20"/>
      <use x="223.40625" xlink:href="#DejaVuSans-76"/>
      <use x="282.585938" xlink:href="#DejaVuSans-65"/>
      <use x="344.109375" xlink:href="#DejaVuSans-6e"/>
      <use x="407.488281" xlink:href="#DejaVuSans-74"/>
      <use x="446.697266" xlink:href="#DejaVuSans-72"/>
      <use x="487.810547" xlink:href="#DejaVuSans-69"/>
      <use x="515.59375" xlink:href="#DejaVuSans-63"/>
      <use x="570.574219" xlink:href="#DejaVuSans-6c"/>
      <use x="598.357422" xlink:href="#DejaVuSans-65"/>
     </g>
    </g>
   </g>
  </g>
 </g>
 <defs>
  <clipPath id="p6df003a5cf">
   <rect height="584.244531" width="565.59375" x="60.10625" y="14.599219"/>
  </clipPath>
 </defs>
</svg>
